<svg xmlns="http://www.w3.org/2000/svg" viewBox="0 0 24 24" width="24" height="24">
  <path fill="#F38020" d="M16.608 15.408l.24-1.344c.036-.12.06-.24.06-.36a2.52 2.52 0 0 0-2.52-2.52h-8.4a.36.36 0 0 0-.36.42l-.6 3.24c-.036.12-.06.24-.06.36a2.52 2.52 0 0 0 2.52 2.52h7.8a.36.36 0 0 0 .36-.36l.96-.36v-.396z"/>
  <path fill="#FAAE40" d="M16.848 9.648a.36.36 0 0 0-.36-.36h-9.6l-.36 2.16h9.84a.36.36 0 0 0 .36-.36l.12-1.44z"/>
  <path fill="#F38020" d="M19.008 7.848a3.84 3.84 0 0 0-3.84-3.84 3.84 3.84 0 0 0-3.456 2.16H7.368a4.8 4.8 0 0 0-4.8 4.8 4.8 4.8 0 0 0 4.8 4.8h9.24a2.88 2.88 0 0 0 2.4-1.44 2.88 2.88 0 0 0-2.16-4.32h-.84a3.84 3.84 0 0 0 3-3.84v1.68z"/>
</svg>
